<svg width="241" height="239" viewBox="0 0 241 239" fill="none" xmlns="http://www.w3.org/2000/svg">
<path d="M113.797 284.648C110.463 292.133 108.061 296.925 108.061 296.925L106.87 296.297L103.735 294.648L96.2697 290.716L94.9877 290.04L95.3539 282.89L96.9807 251.273L97.6702 237.947L69.2132 253.047L35.5421 270.916C34.1631 273.328 32.7932 275.675 31.4322 277.958L8.55566 262.203L31.7715 228.19L45.3025 221.841L42.383 221.273C43.1293 220.19 43.9732 219.178 44.9039 218.25L45.9273 217.671C45.9273 217.671 110.312 182.063 128.837 200.321C130.434 201.954 131.633 203.937 132.338 206.114C138.688 224.426 122.825 264.399 113.797 284.648Z" fill="#2F2E41"/>
<path d="M99.6304 318.141C98.2435 320.223 96.3604 321.924 94.1523 323.09C92.2818 324.117 90.3013 324.928 88.2487 325.508C60.9499 333.517 1.20805 317.601 1.20805 317.601L3.55656 309.266L5.2264 303.339L10.893 302.447L14.4158 301.89L56.5491 295.254L44.9411 287.26L31.4318 277.958L8.55526 262.203L-18.8621 249.824C-50.6425 224.405 -24.0331 195.903 -24.0331 195.903L-6.24686 183.247L-0.472538 179.137L35.003 197.363L45.302 221.841L48.4693 229.364L69.2128 253.047L95.3535 282.89L95.5582 283.123C96.3141 283.699 97.0254 284.332 97.6859 285.016C97.9283 285.254 98.1814 285.519 98.44 285.805C100.79 288.357 102.592 291.367 103.735 294.648C104.478 296.811 104.881 299.077 104.931 301.365C104.933 301.369 104.935 301.374 104.935 301.378C104.935 301.383 104.933 301.388 104.931 301.392C105.049 306.157 103.686 311.776 99.6304 318.141Z" fill="#2F2E41"/>
<path d="M-36.1923 207.933C-37.6071 207.504 -38.3269 206.982 -38.4585 206.29C-38.6515 205.275 -37.5147 204.37 -36.1984 203.321C-35.2805 202.591 -32.8589 201.319 -33.7441 200.928C-47.166 194.994 -14.5347 110.755 -5.06623 101.183C-3.14237 99.2381 -3.3717 95.2897 -0.807518 91.7768C6.19629 82.1831 12.3411 80.4448 24.5823 76.9829C25.576 76.7017 26.6112 76.4073 27.688 76.0997C29.0813 75.7005 27.6124 79.6745 28.3386 77.0101C29.1458 74.049 29.9804 70.9867 31.9849 69.5223L32.1154 69.4268L32.2764 69.4372C35.9857 69.6836 48.0966 71.7247 54.3083 76.1281L54.3939 76.1897L54.4438 76.2824C55.589 78.4269 54.7791 81.6628 53.9958 84.7919C53.3524 87.3608 54.8999 83.2965 55.5156 84.6169C60.2233 94.7094 68.3176 96.9944 68.3997 97.0174L68.8019 97.1266L68.7217 97.5368C70.8376 108.552 56.3246 142.68 53.1871 165.661C49.9997 189.009 68.1709 215.304 41.4676 210.884C41.5289 211.087 51.323 231.275 51.1634 231.436C48.7354 233.877 -30.86 209.549 -36.1923 207.933Z" fill="#E6E6E6"/>
<path d="M140.484 84.0722C140.677 85.176 140.627 86.3088 140.337 87.3909C140.046 88.4729 139.523 89.4779 138.804 90.335C138.086 91.1922 137.188 91.8806 136.176 92.3519C135.163 92.8231 134.06 93.0657 132.944 93.0626L123.978 118.772L115.435 107.512L125.258 84.824C125.388 82.9418 126.201 81.1727 127.542 79.8519C128.884 78.5311 130.662 77.7504 132.539 77.6577C134.416 77.5651 136.261 78.1669 137.726 79.3491C139.19 80.5314 140.172 82.2119 140.484 84.0722Z" fill="#9E616A"/>
<path d="M101.028 155.717L84.7768 152.189C55.4643 142.87 45.4135 131.369 42.1366 123.36C38.64 114.815 41.8263 108.56 41.9642 108.299L42.0475 108.186L52.5605 97.9134C53.8959 96.6087 55.4923 95.6038 57.2438 94.9655C58.9954 94.3272 60.8621 94.07 62.7201 94.211C64.5782 94.3519 66.3851 94.8878 68.0213 95.7831C69.6574 96.6784 71.0853 97.9127 72.2103 99.4041L93.5589 127.707L103.445 114.26L108.239 110.407L110.826 103.128L120.746 92.293L132.231 97.6288L127.907 123.828L122.121 127.381L121.848 131.238L121.753 131.35L101.028 155.717Z" fill="#E6E6E6"/>
<path d="M47.7102 205.002H28.4574C27.5048 205 26.5916 204.62 25.9185 203.943C25.2453 203.266 24.8672 202.349 24.8672 201.392C24.8672 200.436 25.2453 199.519 25.9185 198.842C26.5916 198.165 27.5048 197.784 28.4574 197.783H47.7102C48.6628 197.784 49.576 198.165 50.2492 198.842C50.9223 199.519 51.3005 200.436 51.3005 201.392C51.3005 202.349 50.9223 203.266 50.2492 203.943C49.576 204.62 48.6628 205 47.7102 205.002Z" fill="white"/>
<path d="M140.787 85.0788C154.377 85.0788 165.393 74.0173 165.393 60.3723C165.393 46.7273 154.377 35.6658 140.787 35.6658C127.197 35.6658 116.18 46.7273 116.18 60.3723C116.18 74.0173 127.197 85.0788 140.787 85.0788Z" fill="white"/>
<path d="M140.787 85.3805C135.861 85.3805 131.045 83.9138 126.949 81.1659C122.853 78.418 119.661 74.5122 117.776 69.9426C115.891 65.373 115.397 60.3447 116.358 55.4936C117.32 50.6425 119.692 46.1865 123.175 42.689C126.658 39.1916 131.096 36.8098 135.928 35.8448C140.759 34.8799 145.768 35.3751 150.319 37.2679C154.87 39.1606 158.76 42.366 161.497 46.4785C164.234 50.5911 165.694 55.4261 165.694 60.3722C165.687 67.0025 163.06 73.3591 158.391 78.0474C153.722 82.7357 147.391 85.373 140.787 85.3805Z" fill="#0062CC"/>
<path d="M138.944 70.2462C138.892 70.2462 138.84 70.2445 138.787 70.242C138.324 70.2195 137.871 70.0966 137.459 69.8818C137.047 69.667 136.686 69.3654 136.402 68.9976L132.29 63.6894C132.03 63.3543 131.838 62.9712 131.726 62.5619C131.614 62.1525 131.583 61.725 131.636 61.3037C131.688 60.8824 131.823 60.4757 132.032 60.1066C132.241 59.7375 132.52 59.4134 132.854 59.1528L133.002 59.0372C133.335 58.7763 133.717 58.584 134.125 58.4713C134.533 58.3586 134.959 58.3277 135.378 58.3803C135.798 58.433 136.203 58.5682 136.571 58.7782C136.939 58.9882 137.261 59.2688 137.521 59.6042C137.729 59.8719 137.991 60.0915 138.291 60.2479C138.591 60.4043 138.922 60.4938 139.259 60.5103C139.597 60.5268 139.934 60.4699 140.248 60.3435C140.561 60.2171 140.844 60.0242 141.077 59.778L149.426 50.9276C150.014 50.306 150.823 49.9439 151.677 49.9206C152.53 49.8973 153.358 50.2148 153.978 50.8034L154.115 50.9344C154.422 51.2264 154.669 51.5761 154.841 51.9638C155.014 52.3515 155.108 52.7695 155.12 53.1939C155.131 53.6183 155.059 54.0407 154.908 54.4372C154.756 54.8336 154.529 55.1963 154.238 55.5044L141.281 69.2365C140.98 69.5555 140.618 69.8095 140.216 69.9832C139.815 70.1568 139.382 70.2463 138.944 70.2462Z" fill="white"/>
<rect x="10.5" y="121.5" width="155" height="105" rx="9.5" fill="white" stroke="black"/>
<path d="M112.226 146.11H60.391C59.9354 146.119 59.4933 145.955 59.1541 145.65C58.8149 145.346 58.6038 144.925 58.5635 144.471C58.5509 144.236 58.5862 144.001 58.6675 143.78C58.7487 143.559 58.874 143.357 59.0358 143.186C59.1977 143.016 59.3926 142.88 59.6087 142.787C59.8249 142.694 60.0577 142.646 60.293 142.646H113.058C114.797 144.173 113.738 146.11 112.226 146.11Z" fill="#CCCCCC"/>
<path d="M112.226 155.202H60.391C59.9354 155.211 59.4933 155.047 59.1541 154.743C58.8149 154.439 58.6038 154.017 58.5635 153.563C58.5509 153.328 58.5862 153.093 58.6675 152.872C58.7487 152.651 58.874 152.449 59.0358 152.279C59.1977 152.108 59.3926 151.972 59.6087 151.879C59.8249 151.786 60.0577 151.738 60.293 151.738H113.058C114.797 153.265 113.738 155.202 112.226 155.202Z" fill="#CCCCCC"/>
<path d="M49.1858 160.379H33.3662C32.8496 160.378 32.3544 160.173 31.9892 159.807C31.6239 159.442 31.4185 158.947 31.418 158.43V139.762C31.4185 139.245 31.6239 138.75 31.9892 138.385C32.3544 138.02 32.8496 137.814 33.3662 137.814H49.1858C49.7023 137.814 50.1974 138.02 50.5626 138.385C50.9278 138.75 51.1333 139.245 51.134 139.762V158.43C51.1335 158.947 50.9281 159.442 50.5628 159.807C50.1976 160.173 49.7023 160.378 49.1858 160.379Z" fill="#0062CC"/>
<path d="M112.076 173.818H32.9652C32.5096 173.827 32.0675 173.663 31.7283 173.359C31.3891 173.055 31.178 172.633 31.1378 172.179C31.1251 171.945 31.1605 171.71 31.2417 171.489C31.3229 171.268 31.4482 171.066 31.61 170.895C31.7719 170.724 31.9668 170.588 32.183 170.495C32.3991 170.402 32.6319 170.354 32.8672 170.354H112.908C114.646 171.882 113.587 173.818 112.076 173.818V173.818Z" fill="#CCCCCC"/>
<path d="M151.94 173.818H72.8299C72.3743 173.827 71.9323 173.663 71.5931 173.359C71.2538 173.055 71.0428 172.633 71.0025 172.179C70.9899 171.945 71.0252 171.71 71.1064 171.489C71.1876 171.268 71.313 171.066 71.4748 170.895C71.6366 170.724 71.8316 170.588 72.0477 170.495C72.2638 170.402 72.4967 170.354 72.7319 170.354H152.773C154.511 171.882 153.452 173.818 151.94 173.818V173.818Z" fill="#CCCCCC"/>
<path d="M112.076 182.913H32.9652C32.5096 182.922 32.0675 182.758 31.7283 182.454C31.3891 182.15 31.178 181.728 31.1378 181.274C31.1251 181.04 31.1605 180.804 31.2417 180.584C31.3229 180.363 31.4482 180.161 31.61 179.99C31.7719 179.819 31.9668 179.683 32.183 179.59C32.3991 179.497 32.6319 179.449 32.8672 179.449H112.908C114.646 180.977 113.587 182.913 112.076 182.913Z" fill="#CCCCCC"/>
<path d="M151.94 182.913H72.8299C72.3743 182.922 71.9323 182.758 71.5931 182.454C71.2538 182.15 71.0428 181.728 71.0025 181.274C70.9899 181.04 71.0252 180.804 71.1064 180.584C71.1876 180.363 71.313 180.161 71.4748 179.99C71.6366 179.819 71.8316 179.683 72.0477 179.59C72.2638 179.497 72.4967 179.449 72.7319 179.449H152.773C154.511 180.977 153.452 182.913 151.94 182.913Z" fill="#CCCCCC"/>
<path d="M112.076 192.002H32.9652C32.5096 192.012 32.0675 191.848 31.7283 191.543C31.3891 191.239 31.178 190.817 31.1378 190.364C31.1251 190.129 31.1605 189.894 31.2417 189.673C31.3229 189.452 31.4482 189.25 31.61 189.079C31.7719 188.908 31.9668 188.772 32.183 188.679C32.3991 188.587 32.6319 188.539 32.8672 188.539H112.908C114.646 190.066 113.587 192.002 112.076 192.002V192.002Z" fill="#CCCCCC"/>
<path d="M151.94 192.002H72.8299C72.3743 192.012 71.9323 191.848 71.5931 191.543C71.2538 191.239 71.0428 190.817 71.0025 190.364C70.9899 190.129 71.0252 189.894 71.1064 189.673C71.1876 189.452 71.313 189.25 71.4748 189.079C71.6366 188.908 71.8316 188.772 72.0477 188.679C72.2638 188.587 72.4967 188.539 72.7319 188.539H152.773C154.511 190.066 153.452 192.002 151.94 192.002V192.002Z" fill="#CCCCCC"/>
<path d="M112.076 201.097H32.9652C32.5096 201.106 32.0675 200.942 31.7283 200.638C31.3891 200.333 31.178 199.912 31.1378 199.458C31.1251 199.223 31.1605 198.988 31.2417 198.767C31.3229 198.546 31.4482 198.344 31.61 198.173C31.7719 198.003 31.9668 197.867 32.183 197.774C32.3991 197.681 32.6319 197.633 32.8672 197.633H112.908C114.646 199.16 113.587 201.097 112.076 201.097V201.097Z" fill="#CCCCCC"/>
<path d="M151.94 201.097H72.8299C72.3743 201.106 71.9323 200.942 71.5931 200.638C71.2538 200.333 71.0428 199.912 71.0025 199.458C70.9899 199.223 71.0252 198.988 71.1064 198.767C71.1876 198.546 71.313 198.344 71.4748 198.173C71.6366 198.003 71.8316 197.867 72.0477 197.774C72.2638 197.681 72.4967 197.633 72.7319 197.633H152.773C154.511 199.16 153.452 201.097 151.94 201.097V201.097Z" fill="#CCCCCC"/>
<path d="M14.2397 188.388C13.1385 188.205 12.0907 187.782 11.1701 187.148C10.2494 186.515 9.4783 185.686 8.91103 184.721C8.34376 183.756 7.99414 182.678 7.88679 181.562C7.77944 180.447 7.91699 179.321 8.28973 178.265L-12.8994 161.254L0.512495 156.891L18.5779 173.714C20.3037 174.46 21.6969 175.816 22.4935 177.525C23.2901 179.234 23.4347 181.177 22.9 182.986C22.3653 184.794 21.1883 186.343 19.5921 187.339C17.996 188.334 16.0915 188.708 14.2397 188.388Z" fill="#9E616A"/>
<path d="M-40.0142 127.271L-31.3144 113.045C-12.8453 88.3637 1.29221 82.6526 9.90412 82.2017C19.0929 81.7206 23.9148 86.8113 24.1146 87.0285L24.1929 87.1447L30.3631 100.508C31.1467 102.205 31.5621 104.05 31.5816 105.921C31.6011 107.792 31.2244 109.645 30.4763 111.359C29.7283 113.072 28.626 114.607 27.2426 115.86C25.8591 117.113 24.2262 118.057 22.452 118.629L-11.2177 129.476L-1.85643 143.296L0.174988 149.115L6.15874 153.977L13.0539 166.964L4.2346 176.076L-18.953 163.3L-20.3741 156.642L-23.9083 155.105L-23.9827 154.978L-40.0142 127.271Z" fill="#E6E6E6"/>
<circle cx="62" cy="12" r="12" fill="#2F2E41"/>
<circle cx="32" cy="26" r="12" fill="#2F2E41"/>
<circle cx="27" cy="36" r="13" fill="#2F2E41"/>
<circle cx="27.5" cy="46.5" r="10.5" fill="#2F2E41"/>
<circle cx="35" cy="53" r="11" fill="#2F2E41"/>
<circle cx="46" cy="58" r="12" fill="#2F2E41"/>
<circle cx="65" cy="61" r="12" fill="#2F2E41"/>
<ellipse cx="73" cy="53.5" rx="11" ry="9.5" fill="#2F2E41"/>
<circle cx="74" cy="18" r="12" fill="#2F2E41"/>
<ellipse cx="81" cy="25.5" rx="11" ry="9.5" fill="#2F2E41"/>
<circle cx="49.5" cy="9.5" r="8.5" fill="#2F2E41"/>
<circle cx="37.5" cy="12.5" r="8.5" fill="#2F2E41"/>
<path d="M39.7508 29.7076C37.0956 33.709 35.681 38.4107 35.6856 43.2189C35.6902 48.0271 37.1138 52.7261 39.7766 56.7225C42.4395 60.7188 46.2221 63.8332 50.6468 65.6723C55.0715 67.5114 59.9397 67.9927 64.6367 67.0555C67.746 66.4452 70.7038 65.2215 73.3387 63.4553C75.9736 61.6891 78.2333 59.4155 79.9867 56.7661C82.6363 52.7661 84.047 48.0679 84.0409 43.2639C84.0349 38.46 82.6123 33.7654 79.9526 29.7721C77.293 25.7787 73.5153 22.6655 69.0958 20.8248C64.6764 18.9841 59.8131 18.4985 55.1192 19.4291C52.0074 20.0358 49.0465 21.2569 46.4084 23.0215C43.7702 24.7861 41.5072 27.059 39.7507 29.7085L39.7508 29.7076Z" fill="#9E616A"/>
<path d="M80.4996 30.0001C79.4649 37.9108 64.5 41.5 54.5 37C50.7483 35.3117 44.5 52 32 48C30.0299 46.944 28.4999 38 25.9999 38.5C22.4999 38.5 33.5814 25.1981 33.9997 22.0001C35.0344 14.0895 58.1592 11.1505 66.2202 12.2049C74.2811 13.2593 81.5344 22.0895 80.4996 30.0001Z" fill="#2F2E41"/>
<path d="M59.0125 29.4749C61.1692 30.9889 59.2749 37.7516 56.1954 42.8306C53.116 47.9095 47.591 51.3613 45.4342 49.8473C43.2774 48.3334 50.4265 39.9372 50.4505 31.1451C53.1053 27.3632 56.8557 27.9609 59.0125 29.4749Z" fill="#2F2E41"/>
<ellipse cx="82" cy="35.5" rx="10" ry="9.5" fill="#2F2E41"/>
</svg>
