<svg width="54" height="54" viewBox="0 0 54 54" fill="none" xmlns="http://www.w3.org/2000/svg">
<path d="M48.3332 0.333313H5.66658C4.25325 0.333313 2.89325 0.893313 1.90658 1.90665C0.893252 2.89331 0.333252 4.25331 0.333252 5.66665V37.6666C0.333252 39.08 0.893252 40.44 1.90658 41.4266C2.89325 42.44 4.25325 43 5.66658 43H16.3333L26.9999 53.6666L37.6666 43H48.3332C49.7466 43 51.1066 42.44 52.0933 41.4266C53.0799 40.4133 53.6666 39.08 53.6666 37.6666V5.66665C53.6666 4.25331 53.1066 2.89331 52.0933 1.90665C51.1066 0.893313 49.7466 0.333313 48.3332 0.333313ZM21.7999 11.1066C23.2399 10.1466 25.1332 9.66665 27.5066 9.66665C30.0132 9.66665 32.0133 10.2266 33.4533 11.32C34.8932 12.44 35.6132 13.9333 35.6132 15.8C35.6132 16.9733 35.2132 18.0133 34.4399 19C33.6666 19.96 32.6532 20.7066 31.4266 21.2666C30.7332 21.6666 30.2799 22.0666 30.0399 22.52C29.7999 23 29.6666 23.5866 29.6666 24.3333H24.3333C24.3333 23 24.5999 22.0933 25.1066 21.4533C25.6666 20.8133 26.5732 20.0666 27.9599 19.2133C28.6532 18.84 29.2133 18.36 29.6666 17.7733C30.0399 17.2133 30.2533 16.5466 30.2533 15.8C30.2533 15 30.0133 14.4133 29.5332 13.96C29.0532 13.48 28.3333 13.2666 27.5066 13.2666C26.7866 13.2666 26.1999 13.4533 25.6666 13.8266C25.2399 14.2 24.9732 14.76 24.9732 15.5066H19.7199C19.5866 13.6666 20.3333 12.0666 21.7999 11.1066ZM24.3333 32.3333V27H29.6666V32.3333H24.3333Z" fill="#D2DBEB"/>
</svg>
